<svg xmlns="http://www.w3.org/2000/svg" viewBox="0 0 48 48" fill="#fff"><path d="M21.923 9.804c5.534-.08 11.075.146 16.575.772.882.119 1.786.153 2.63.46 1.557.528 2.862 1.758 3.46 3.293.309.75.39 1.565.513 2.361.353 2.468.515 4.963.444 7.456-.019 3.003-.247 6.012-.794 8.966a5.793 5.793 0 01-2.864 3.77 5.83 5.83 0 01-2.046.649c-2.047.259-4.099.486-6.153.671-.885.072-1.74-.287-2.467-.762-1.28-.85-2.284-2.028-3.338-3.128-.828-.891-1.642-1.82-2.658-2.503-.442-.294-.973-.56-1.518-.438-.586.138-1.075.52-1.536.89-1.55 1.32-2.781 2.965-4.283 4.336-.99.879-2.212 1.7-3.597 1.6-2.08-.18-4.156-.434-6.23-.678-2.019-.255-3.814-1.686-4.567-3.568-.292-.698-.383-1.454-.499-2.195a52.308 52.308 0 01.167-16.277 5.726 5.726 0 012.3-3.679 6.094 6.094 0 012.918-1.08c4.497-.521 9.017-.835 13.543-.916m-7.874 7.22c-2.385.223-4.52 2.02-5.14 4.334a5.996 5.996 0 00.414 4.328 5.997 5.997 0 0010.938-.515 6.003 6.003 0 00.06-4.204 6.011 6.011 0 00-2.525-3.1 6.011 6.011 0 00-3.747-.843m18.656.007a6.002 6.002 0 00-3.528 1.701 5.975 5.975 0 00-1.762 4.618c.108 2.406 1.834 4.624 4.13 5.34a5.99 5.99 0 004.135-.16 5.994 5.994 0 00.855-10.65 6.01 6.01 0 00-3.83-.85z"/></svg>