<svg xmlns="http://www.w3.org/2000/svg" viewBox="0 0 309.628 309.628" fill="#fff"><path d="M134.39 63.43c41.19-.95 82.5.72 123.38 5.97 15.29 1.81 28.83 13.92 31.66 29.16 3.55 19.58 4.97 39.56 4.34 59.45-.2 18.06-1.59 36.15-4.8 53.94-1.9 10.98-9.12 20.83-18.95 26.06-4.79 2.63-10.19 3.84-15.58 4.46-12.14 1.47-24.29 2.85-36.47 3.85-7.91.8-15.22-3.28-21.1-8.15-10.55-8.76-18.86-19.83-29.01-29.02-3.51-3.02-7.37-6.15-12.1-6.86-4.42-.45-8.28 2.33-11.6 4.89-10.79 8.84-19.08 20.26-29.49 29.52-6.01 5.21-13.33 10.02-21.63 9.65-9.42-.45-18.78-1.85-28.16-2.85-5.98-.75-12.07-1-17.93-2.54-13.17-3.62-23.81-15.09-26.35-28.53-5.74-32.64-6.37-66.17-2.17-99.04.71-5.49 1.3-11.02 2.62-16.41 2.63-10.73 10.43-20.03 20.54-24.5 7.33-3.39 15.53-3.75 23.44-4.53 23.05-2.38 46.19-3.9 69.36-4.52m-48.01 47.05c-12.23 2.71-23.02 11.64-27.57 23.37-4.06 9.94-3.66 21.56 1.01 31.23 4.79 9.91 13.95 17.65 24.61 20.48 9.34 2.63 19.64 1.5 28.2-3.04 10.06-5.16 17.5-14.99 19.85-26.04 3.18-14-2.31-29.46-13.56-38.36-8.97-7.27-21.28-10.1-32.54-7.64m121-.01c-11.08 2.3-20.91 9.78-26.17 19.79-5.66 10.72-6 24.2-.51 35.06 4.44 8.84 12.24 16.06 21.61 19.35 8.9 3.24 18.97 3.02 27.73-.57 10.94-4.41 19.58-14.09 22.66-25.48 4.19-14.48-1.1-31.06-12.94-40.39-8.9-7.29-21.15-10.25-32.38-7.76z"/></svg>